<mxfile host="app.diagrams.net" modified="2024-04-30T02:58:55.396Z" agent="Mozilla/5.0 (Windows NT 10.0; Win64; x64) AppleWebKit/537.36 (KHTML, like Gecko) Chrome/124.0.0.0 Safari/537.36" etag="NjKLIegreU_tjiHqRg4n" version="24.3.1" type="github">
  <diagram name="Page-1" id="cSA1uu6X9j9ma_ZOFing">
    <mxGraphModel dx="2438" dy="824" grid="1" gridSize="10" guides="1" tooltips="1" connect="1" arrows="1" fold="1" page="1" pageScale="1" pageWidth="850" pageHeight="1100" math="0" shadow="0">
      <root>
        <mxCell id="0" />
        <mxCell id="1" parent="0" />
        <mxCell id="msLy111ZlkWOnDK94mpJ-1" value="`supplier_shipments`" style="shape=table;startSize=30;container=1;collapsible=1;childLayout=tableLayout;fixedRows=1;rowLines=0;fontStyle=1;align=center;resizeLast=1;fontSize=18;" parent="1" vertex="1">
          <mxGeometry x="210" y="600" width="710" height="270" as="geometry" />
        </mxCell>
        <mxCell id="msLy111ZlkWOnDK94mpJ-2" value="" style="shape=tableRow;horizontal=0;startSize=0;swimlaneHead=0;swimlaneBody=0;fillColor=none;collapsible=0;dropTarget=0;points=[[0,0.5],[1,0.5]];portConstraint=eastwest;strokeColor=inherit;top=0;left=0;right=0;bottom=1;fontSize=18;" parent="msLy111ZlkWOnDK94mpJ-1" vertex="1">
          <mxGeometry y="30" width="710" height="30" as="geometry" />
        </mxCell>
        <mxCell id="msLy111ZlkWOnDK94mpJ-3" value="PK" style="shape=partialRectangle;overflow=hidden;connectable=0;fillColor=none;strokeColor=inherit;top=0;left=0;bottom=0;right=0;fontStyle=1;fontSize=18;" parent="msLy111ZlkWOnDK94mpJ-2" vertex="1">
          <mxGeometry width="30" height="30" as="geometry">
            <mxRectangle width="30" height="30" as="alternateBounds" />
          </mxGeometry>
        </mxCell>
        <mxCell id="msLy111ZlkWOnDK94mpJ-4" value="`id` char(36) NOT NULL" style="shape=partialRectangle;overflow=hidden;connectable=0;fillColor=none;align=left;strokeColor=inherit;top=0;left=0;bottom=0;right=0;spacingLeft=6;fontStyle=5;fontSize=18;" parent="msLy111ZlkWOnDK94mpJ-2" vertex="1">
          <mxGeometry x="30" width="680" height="30" as="geometry">
            <mxRectangle width="680" height="30" as="alternateBounds" />
          </mxGeometry>
        </mxCell>
        <mxCell id="msLy111ZlkWOnDK94mpJ-5" value="" style="shape=tableRow;horizontal=0;startSize=0;swimlaneHead=0;swimlaneBody=0;fillColor=none;collapsible=0;dropTarget=0;points=[[0,0.5],[1,0.5]];portConstraint=eastwest;strokeColor=inherit;top=0;left=0;right=0;bottom=0;fontSize=18;" parent="msLy111ZlkWOnDK94mpJ-1" vertex="1">
          <mxGeometry y="60" width="710" height="30" as="geometry" />
        </mxCell>
        <mxCell id="msLy111ZlkWOnDK94mpJ-6" value="" style="shape=partialRectangle;overflow=hidden;connectable=0;fillColor=none;strokeColor=inherit;top=0;left=0;bottom=0;right=0;fontSize=18;" parent="msLy111ZlkWOnDK94mpJ-5" vertex="1">
          <mxGeometry width="30" height="30" as="geometry">
            <mxRectangle width="30" height="30" as="alternateBounds" />
          </mxGeometry>
        </mxCell>
        <mxCell id="msLy111ZlkWOnDK94mpJ-7" value="`delivered_by` bigint(20) unsigned DEFAULT NULL" style="shape=partialRectangle;overflow=hidden;connectable=0;fillColor=none;align=left;strokeColor=inherit;top=0;left=0;bottom=0;right=0;spacingLeft=6;fontSize=18;" parent="msLy111ZlkWOnDK94mpJ-5" vertex="1">
          <mxGeometry x="30" width="680" height="30" as="geometry">
            <mxRectangle width="680" height="30" as="alternateBounds" />
          </mxGeometry>
        </mxCell>
        <mxCell id="msLy111ZlkWOnDK94mpJ-8" value="" style="shape=tableRow;horizontal=0;startSize=0;swimlaneHead=0;swimlaneBody=0;fillColor=none;collapsible=0;dropTarget=0;points=[[0,0.5],[1,0.5]];portConstraint=eastwest;strokeColor=inherit;top=0;left=0;right=0;bottom=0;fontSize=18;" parent="msLy111ZlkWOnDK94mpJ-1" vertex="1">
          <mxGeometry y="90" width="710" height="30" as="geometry" />
        </mxCell>
        <mxCell id="msLy111ZlkWOnDK94mpJ-9" value="" style="shape=partialRectangle;overflow=hidden;connectable=0;fillColor=none;strokeColor=inherit;top=0;left=0;bottom=0;right=0;fontSize=18;" parent="msLy111ZlkWOnDK94mpJ-8" vertex="1">
          <mxGeometry width="30" height="30" as="geometry">
            <mxRectangle width="30" height="30" as="alternateBounds" />
          </mxGeometry>
        </mxCell>
        <mxCell id="msLy111ZlkWOnDK94mpJ-10" value="`origin_address_id` bigint(20) unsigned NOT NULL" style="shape=partialRectangle;overflow=hidden;connectable=0;fillColor=none;align=left;strokeColor=inherit;top=0;left=0;bottom=0;right=0;spacingLeft=6;fontSize=18;" parent="msLy111ZlkWOnDK94mpJ-8" vertex="1">
          <mxGeometry x="30" width="680" height="30" as="geometry">
            <mxRectangle width="680" height="30" as="alternateBounds" />
          </mxGeometry>
        </mxCell>
        <mxCell id="msLy111ZlkWOnDK94mpJ-11" value="" style="shape=tableRow;horizontal=0;startSize=0;swimlaneHead=0;swimlaneBody=0;fillColor=none;collapsible=0;dropTarget=0;points=[[0,0.5],[1,0.5]];portConstraint=eastwest;strokeColor=inherit;top=0;left=0;right=0;bottom=0;fontSize=18;" parent="msLy111ZlkWOnDK94mpJ-1" vertex="1">
          <mxGeometry y="120" width="710" height="30" as="geometry" />
        </mxCell>
        <mxCell id="msLy111ZlkWOnDK94mpJ-12" value="" style="shape=partialRectangle;overflow=hidden;connectable=0;fillColor=none;strokeColor=inherit;top=0;left=0;bottom=0;right=0;fontSize=18;" parent="msLy111ZlkWOnDK94mpJ-11" vertex="1">
          <mxGeometry width="30" height="30" as="geometry">
            <mxRectangle width="30" height="30" as="alternateBounds" />
          </mxGeometry>
        </mxCell>
        <mxCell id="msLy111ZlkWOnDK94mpJ-13" value="`destination_address_id` bigint(20) unsigned NOT NULL" style="shape=partialRectangle;overflow=hidden;connectable=0;fillColor=none;align=left;strokeColor=inherit;top=0;left=0;bottom=0;right=0;spacingLeft=6;fontSize=18;" parent="msLy111ZlkWOnDK94mpJ-11" vertex="1">
          <mxGeometry x="30" width="680" height="30" as="geometry">
            <mxRectangle width="680" height="30" as="alternateBounds" />
          </mxGeometry>
        </mxCell>
        <mxCell id="msLy111ZlkWOnDK94mpJ-14" value="" style="shape=tableRow;horizontal=0;startSize=0;swimlaneHead=0;swimlaneBody=0;fillColor=none;collapsible=0;dropTarget=0;points=[[0,0.5],[1,0.5]];portConstraint=eastwest;strokeColor=inherit;top=0;left=0;right=0;bottom=0;fontSize=18;" parent="msLy111ZlkWOnDK94mpJ-1" vertex="1">
          <mxGeometry y="150" width="710" height="30" as="geometry" />
        </mxCell>
        <mxCell id="msLy111ZlkWOnDK94mpJ-15" value="" style="shape=partialRectangle;overflow=hidden;connectable=0;fillColor=none;strokeColor=inherit;top=0;left=0;bottom=0;right=0;fontSize=18;" parent="msLy111ZlkWOnDK94mpJ-14" vertex="1">
          <mxGeometry width="30" height="30" as="geometry">
            <mxRectangle width="30" height="30" as="alternateBounds" />
          </mxGeometry>
        </mxCell>
        <mxCell id="msLy111ZlkWOnDK94mpJ-16" value="`delivery_status` varchar(191) NOT NULL DEFAULT &#39;WAITING_CONFIRMATION&#39;" style="shape=partialRectangle;overflow=hidden;connectable=0;fillColor=none;align=left;strokeColor=inherit;top=0;left=0;bottom=0;right=0;spacingLeft=6;fontSize=18;" parent="msLy111ZlkWOnDK94mpJ-14" vertex="1">
          <mxGeometry x="30" width="680" height="30" as="geometry">
            <mxRectangle width="680" height="30" as="alternateBounds" />
          </mxGeometry>
        </mxCell>
        <mxCell id="msLy111ZlkWOnDK94mpJ-17" value="" style="shape=tableRow;horizontal=0;startSize=0;swimlaneHead=0;swimlaneBody=0;fillColor=none;collapsible=0;dropTarget=0;points=[[0,0.5],[1,0.5]];portConstraint=eastwest;strokeColor=inherit;top=0;left=0;right=0;bottom=0;fontSize=18;" parent="msLy111ZlkWOnDK94mpJ-1" vertex="1">
          <mxGeometry y="180" width="710" height="30" as="geometry" />
        </mxCell>
        <mxCell id="msLy111ZlkWOnDK94mpJ-18" value="" style="shape=partialRectangle;overflow=hidden;connectable=0;fillColor=none;strokeColor=inherit;top=0;left=0;bottom=0;right=0;fontSize=18;" parent="msLy111ZlkWOnDK94mpJ-17" vertex="1">
          <mxGeometry width="30" height="30" as="geometry">
            <mxRectangle width="30" height="30" as="alternateBounds" />
          </mxGeometry>
        </mxCell>
        <mxCell id="msLy111ZlkWOnDK94mpJ-19" value="`delivery_date` timestamp NULL DEFAULT NULL" style="shape=partialRectangle;overflow=hidden;connectable=0;fillColor=none;align=left;strokeColor=inherit;top=0;left=0;bottom=0;right=0;spacingLeft=6;fontSize=18;" parent="msLy111ZlkWOnDK94mpJ-17" vertex="1">
          <mxGeometry x="30" width="680" height="30" as="geometry">
            <mxRectangle width="680" height="30" as="alternateBounds" />
          </mxGeometry>
        </mxCell>
        <mxCell id="msLy111ZlkWOnDK94mpJ-20" value="" style="shape=tableRow;horizontal=0;startSize=0;swimlaneHead=0;swimlaneBody=0;fillColor=none;collapsible=0;dropTarget=0;points=[[0,0.5],[1,0.5]];portConstraint=eastwest;strokeColor=inherit;top=0;left=0;right=0;bottom=0;fontSize=18;" parent="msLy111ZlkWOnDK94mpJ-1" vertex="1">
          <mxGeometry y="210" width="710" height="30" as="geometry" />
        </mxCell>
        <mxCell id="msLy111ZlkWOnDK94mpJ-21" value="" style="shape=partialRectangle;overflow=hidden;connectable=0;fillColor=none;strokeColor=inherit;top=0;left=0;bottom=0;right=0;fontSize=18;" parent="msLy111ZlkWOnDK94mpJ-20" vertex="1">
          <mxGeometry width="30" height="30" as="geometry">
            <mxRectangle width="30" height="30" as="alternateBounds" />
          </mxGeometry>
        </mxCell>
        <mxCell id="msLy111ZlkWOnDK94mpJ-22" value="`created_at` timestamp NULL DEFAULT NULL" style="shape=partialRectangle;overflow=hidden;connectable=0;fillColor=none;align=left;strokeColor=inherit;top=0;left=0;bottom=0;right=0;spacingLeft=6;fontSize=18;" parent="msLy111ZlkWOnDK94mpJ-20" vertex="1">
          <mxGeometry x="30" width="680" height="30" as="geometry">
            <mxRectangle width="680" height="30" as="alternateBounds" />
          </mxGeometry>
        </mxCell>
        <mxCell id="msLy111ZlkWOnDK94mpJ-23" value="" style="shape=tableRow;horizontal=0;startSize=0;swimlaneHead=0;swimlaneBody=0;fillColor=none;collapsible=0;dropTarget=0;points=[[0,0.5],[1,0.5]];portConstraint=eastwest;strokeColor=inherit;top=0;left=0;right=0;bottom=0;fontSize=18;" parent="msLy111ZlkWOnDK94mpJ-1" vertex="1">
          <mxGeometry y="240" width="710" height="30" as="geometry" />
        </mxCell>
        <mxCell id="msLy111ZlkWOnDK94mpJ-24" value="" style="shape=partialRectangle;overflow=hidden;connectable=0;fillColor=none;strokeColor=inherit;top=0;left=0;bottom=0;right=0;fontSize=18;" parent="msLy111ZlkWOnDK94mpJ-23" vertex="1">
          <mxGeometry width="30" height="30" as="geometry">
            <mxRectangle width="30" height="30" as="alternateBounds" />
          </mxGeometry>
        </mxCell>
        <mxCell id="msLy111ZlkWOnDK94mpJ-25" value="`updated_at` timestamp NULL DEFAULT NULL" style="shape=partialRectangle;overflow=hidden;connectable=0;fillColor=none;align=left;strokeColor=inherit;top=0;left=0;bottom=0;right=0;spacingLeft=6;fontSize=18;" parent="msLy111ZlkWOnDK94mpJ-23" vertex="1">
          <mxGeometry x="30" width="680" height="30" as="geometry">
            <mxRectangle width="680" height="30" as="alternateBounds" />
          </mxGeometry>
        </mxCell>
        <mxCell id="msLy111ZlkWOnDK94mpJ-26" value="`drivers`" style="shape=table;startSize=30;container=1;collapsible=1;childLayout=tableLayout;fixedRows=1;rowLines=0;fontStyle=1;align=center;resizeLast=1;fontSize=18;" parent="1" vertex="1">
          <mxGeometry x="-590" y="570" width="550" height="300" as="geometry" />
        </mxCell>
        <mxCell id="msLy111ZlkWOnDK94mpJ-27" value="" style="shape=tableRow;horizontal=0;startSize=0;swimlaneHead=0;swimlaneBody=0;fillColor=none;collapsible=0;dropTarget=0;points=[[0,0.5],[1,0.5]];portConstraint=eastwest;strokeColor=inherit;top=0;left=0;right=0;bottom=1;fontSize=18;" parent="msLy111ZlkWOnDK94mpJ-26" vertex="1">
          <mxGeometry y="30" width="550" height="30" as="geometry" />
        </mxCell>
        <mxCell id="msLy111ZlkWOnDK94mpJ-28" value="PK" style="shape=partialRectangle;overflow=hidden;connectable=0;fillColor=none;strokeColor=inherit;top=0;left=0;bottom=0;right=0;fontStyle=1;fontSize=18;" parent="msLy111ZlkWOnDK94mpJ-27" vertex="1">
          <mxGeometry width="30" height="30" as="geometry">
            <mxRectangle width="30" height="30" as="alternateBounds" />
          </mxGeometry>
        </mxCell>
        <mxCell id="msLy111ZlkWOnDK94mpJ-29" value="`id` bigint(20) unsigned NOT NULL AUTO_INCREMENT" style="shape=partialRectangle;overflow=hidden;connectable=0;fillColor=none;align=left;strokeColor=inherit;top=0;left=0;bottom=0;right=0;spacingLeft=6;fontStyle=5;fontSize=18;" parent="msLy111ZlkWOnDK94mpJ-27" vertex="1">
          <mxGeometry x="30" width="520" height="30" as="geometry">
            <mxRectangle width="520" height="30" as="alternateBounds" />
          </mxGeometry>
        </mxCell>
        <mxCell id="msLy111ZlkWOnDK94mpJ-30" value="" style="shape=tableRow;horizontal=0;startSize=0;swimlaneHead=0;swimlaneBody=0;fillColor=none;collapsible=0;dropTarget=0;points=[[0,0.5],[1,0.5]];portConstraint=eastwest;strokeColor=inherit;top=0;left=0;right=0;bottom=0;fontSize=18;" parent="msLy111ZlkWOnDK94mpJ-26" vertex="1">
          <mxGeometry y="60" width="550" height="30" as="geometry" />
        </mxCell>
        <mxCell id="msLy111ZlkWOnDK94mpJ-31" value="" style="shape=partialRectangle;overflow=hidden;connectable=0;fillColor=none;strokeColor=inherit;top=0;left=0;bottom=0;right=0;fontSize=18;" parent="msLy111ZlkWOnDK94mpJ-30" vertex="1">
          <mxGeometry width="30" height="30" as="geometry">
            <mxRectangle width="30" height="30" as="alternateBounds" />
          </mxGeometry>
        </mxCell>
        <mxCell id="msLy111ZlkWOnDK94mpJ-32" value="`driver_user_id` bigint(20) unsigned NOT NULL" style="shape=partialRectangle;overflow=hidden;connectable=0;fillColor=none;align=left;strokeColor=inherit;top=0;left=0;bottom=0;right=0;spacingLeft=6;fontSize=18;" parent="msLy111ZlkWOnDK94mpJ-30" vertex="1">
          <mxGeometry x="30" width="520" height="30" as="geometry">
            <mxRectangle width="520" height="30" as="alternateBounds" />
          </mxGeometry>
        </mxCell>
        <mxCell id="msLy111ZlkWOnDK94mpJ-33" value="" style="shape=tableRow;horizontal=0;startSize=0;swimlaneHead=0;swimlaneBody=0;fillColor=none;collapsible=0;dropTarget=0;points=[[0,0.5],[1,0.5]];portConstraint=eastwest;strokeColor=inherit;top=0;left=0;right=0;bottom=0;fontSize=18;" parent="msLy111ZlkWOnDK94mpJ-26" vertex="1">
          <mxGeometry y="90" width="550" height="30" as="geometry" />
        </mxCell>
        <mxCell id="msLy111ZlkWOnDK94mpJ-34" value="" style="shape=partialRectangle;overflow=hidden;connectable=0;fillColor=none;strokeColor=inherit;top=0;left=0;bottom=0;right=0;fontSize=18;" parent="msLy111ZlkWOnDK94mpJ-33" vertex="1">
          <mxGeometry width="30" height="30" as="geometry">
            <mxRectangle width="30" height="30" as="alternateBounds" />
          </mxGeometry>
        </mxCell>
        <mxCell id="msLy111ZlkWOnDK94mpJ-35" value="`name` varchar(100) DEFAULT NULL" style="shape=partialRectangle;overflow=hidden;connectable=0;fillColor=none;align=left;strokeColor=inherit;top=0;left=0;bottom=0;right=0;spacingLeft=6;fontSize=18;" parent="msLy111ZlkWOnDK94mpJ-33" vertex="1">
          <mxGeometry x="30" width="520" height="30" as="geometry">
            <mxRectangle width="520" height="30" as="alternateBounds" />
          </mxGeometry>
        </mxCell>
        <mxCell id="msLy111ZlkWOnDK94mpJ-36" value="" style="shape=tableRow;horizontal=0;startSize=0;swimlaneHead=0;swimlaneBody=0;fillColor=none;collapsible=0;dropTarget=0;points=[[0,0.5],[1,0.5]];portConstraint=eastwest;strokeColor=inherit;top=0;left=0;right=0;bottom=0;fontSize=18;" parent="msLy111ZlkWOnDK94mpJ-26" vertex="1">
          <mxGeometry y="120" width="550" height="30" as="geometry" />
        </mxCell>
        <mxCell id="msLy111ZlkWOnDK94mpJ-37" value="" style="shape=partialRectangle;overflow=hidden;connectable=0;fillColor=none;strokeColor=inherit;top=0;left=0;bottom=0;right=0;fontSize=18;" parent="msLy111ZlkWOnDK94mpJ-36" vertex="1">
          <mxGeometry width="30" height="30" as="geometry">
            <mxRectangle width="30" height="30" as="alternateBounds" />
          </mxGeometry>
        </mxCell>
        <mxCell id="msLy111ZlkWOnDK94mpJ-38" value="`date_of_birth` date DEFAULT NULL" style="shape=partialRectangle;overflow=hidden;connectable=0;fillColor=none;align=left;strokeColor=inherit;top=0;left=0;bottom=0;right=0;spacingLeft=6;fontSize=18;" parent="msLy111ZlkWOnDK94mpJ-36" vertex="1">
          <mxGeometry x="30" width="520" height="30" as="geometry">
            <mxRectangle width="520" height="30" as="alternateBounds" />
          </mxGeometry>
        </mxCell>
        <mxCell id="msLy111ZlkWOnDK94mpJ-39" value="" style="shape=tableRow;horizontal=0;startSize=0;swimlaneHead=0;swimlaneBody=0;fillColor=none;collapsible=0;dropTarget=0;points=[[0,0.5],[1,0.5]];portConstraint=eastwest;strokeColor=inherit;top=0;left=0;right=0;bottom=0;fontSize=18;" parent="msLy111ZlkWOnDK94mpJ-26" vertex="1">
          <mxGeometry y="150" width="550" height="30" as="geometry" />
        </mxCell>
        <mxCell id="msLy111ZlkWOnDK94mpJ-40" value="" style="shape=partialRectangle;overflow=hidden;connectable=0;fillColor=none;strokeColor=inherit;top=0;left=0;bottom=0;right=0;fontSize=18;" parent="msLy111ZlkWOnDK94mpJ-39" vertex="1">
          <mxGeometry width="30" height="30" as="geometry">
            <mxRectangle width="30" height="30" as="alternateBounds" />
          </mxGeometry>
        </mxCell>
        <mxCell id="msLy111ZlkWOnDK94mpJ-41" value="`location` varchar(191) DEFAULT NULL" style="shape=partialRectangle;overflow=hidden;connectable=0;fillColor=none;align=left;strokeColor=inherit;top=0;left=0;bottom=0;right=0;spacingLeft=6;fontSize=18;" parent="msLy111ZlkWOnDK94mpJ-39" vertex="1">
          <mxGeometry x="30" width="520" height="30" as="geometry">
            <mxRectangle width="520" height="30" as="alternateBounds" />
          </mxGeometry>
        </mxCell>
        <mxCell id="msLy111ZlkWOnDK94mpJ-42" value="" style="shape=tableRow;horizontal=0;startSize=0;swimlaneHead=0;swimlaneBody=0;fillColor=none;collapsible=0;dropTarget=0;points=[[0,0.5],[1,0.5]];portConstraint=eastwest;strokeColor=inherit;top=0;left=0;right=0;bottom=0;fontSize=18;" parent="msLy111ZlkWOnDK94mpJ-26" vertex="1">
          <mxGeometry y="180" width="550" height="30" as="geometry" />
        </mxCell>
        <mxCell id="msLy111ZlkWOnDK94mpJ-43" value="" style="shape=partialRectangle;overflow=hidden;connectable=0;fillColor=none;strokeColor=inherit;top=0;left=0;bottom=0;right=0;fontSize=18;" parent="msLy111ZlkWOnDK94mpJ-42" vertex="1">
          <mxGeometry width="30" height="30" as="geometry">
            <mxRectangle width="30" height="30" as="alternateBounds" />
          </mxGeometry>
        </mxCell>
        <mxCell id="msLy111ZlkWOnDK94mpJ-44" value="`no_vehicle` varchar(191) DEFAULT NULL" style="shape=partialRectangle;overflow=hidden;connectable=0;fillColor=none;align=left;strokeColor=inherit;top=0;left=0;bottom=0;right=0;spacingLeft=6;fontSize=18;" parent="msLy111ZlkWOnDK94mpJ-42" vertex="1">
          <mxGeometry x="30" width="520" height="30" as="geometry">
            <mxRectangle width="520" height="30" as="alternateBounds" />
          </mxGeometry>
        </mxCell>
        <mxCell id="msLy111ZlkWOnDK94mpJ-45" value="" style="shape=tableRow;horizontal=0;startSize=0;swimlaneHead=0;swimlaneBody=0;fillColor=none;collapsible=0;dropTarget=0;points=[[0,0.5],[1,0.5]];portConstraint=eastwest;strokeColor=inherit;top=0;left=0;right=0;bottom=0;fontSize=18;" parent="msLy111ZlkWOnDK94mpJ-26" vertex="1">
          <mxGeometry y="210" width="550" height="30" as="geometry" />
        </mxCell>
        <mxCell id="msLy111ZlkWOnDK94mpJ-46" value="" style="shape=partialRectangle;overflow=hidden;connectable=0;fillColor=none;strokeColor=inherit;top=0;left=0;bottom=0;right=0;fontSize=18;" parent="msLy111ZlkWOnDK94mpJ-45" vertex="1">
          <mxGeometry width="30" height="30" as="geometry">
            <mxRectangle width="30" height="30" as="alternateBounds" />
          </mxGeometry>
        </mxCell>
        <mxCell id="msLy111ZlkWOnDK94mpJ-47" value="`deleted_at` timestamp NULL DEFAULT NULL" style="shape=partialRectangle;overflow=hidden;connectable=0;fillColor=none;align=left;strokeColor=inherit;top=0;left=0;bottom=0;right=0;spacingLeft=6;fontSize=18;" parent="msLy111ZlkWOnDK94mpJ-45" vertex="1">
          <mxGeometry x="30" width="520" height="30" as="geometry">
            <mxRectangle width="520" height="30" as="alternateBounds" />
          </mxGeometry>
        </mxCell>
        <mxCell id="msLy111ZlkWOnDK94mpJ-48" value="" style="shape=tableRow;horizontal=0;startSize=0;swimlaneHead=0;swimlaneBody=0;fillColor=none;collapsible=0;dropTarget=0;points=[[0,0.5],[1,0.5]];portConstraint=eastwest;strokeColor=inherit;top=0;left=0;right=0;bottom=0;fontSize=18;" parent="msLy111ZlkWOnDK94mpJ-26" vertex="1">
          <mxGeometry y="240" width="550" height="30" as="geometry" />
        </mxCell>
        <mxCell id="msLy111ZlkWOnDK94mpJ-49" value="" style="shape=partialRectangle;overflow=hidden;connectable=0;fillColor=none;strokeColor=inherit;top=0;left=0;bottom=0;right=0;fontSize=18;" parent="msLy111ZlkWOnDK94mpJ-48" vertex="1">
          <mxGeometry width="30" height="30" as="geometry">
            <mxRectangle width="30" height="30" as="alternateBounds" />
          </mxGeometry>
        </mxCell>
        <mxCell id="msLy111ZlkWOnDK94mpJ-50" value="`created_at` timestamp NULL DEFAULT NULL" style="shape=partialRectangle;overflow=hidden;connectable=0;fillColor=none;align=left;strokeColor=inherit;top=0;left=0;bottom=0;right=0;spacingLeft=6;fontSize=18;" parent="msLy111ZlkWOnDK94mpJ-48" vertex="1">
          <mxGeometry x="30" width="520" height="30" as="geometry">
            <mxRectangle width="520" height="30" as="alternateBounds" />
          </mxGeometry>
        </mxCell>
        <mxCell id="msLy111ZlkWOnDK94mpJ-51" value="" style="shape=tableRow;horizontal=0;startSize=0;swimlaneHead=0;swimlaneBody=0;fillColor=none;collapsible=0;dropTarget=0;points=[[0,0.5],[1,0.5]];portConstraint=eastwest;strokeColor=inherit;top=0;left=0;right=0;bottom=0;fontSize=18;" parent="msLy111ZlkWOnDK94mpJ-26" vertex="1">
          <mxGeometry y="270" width="550" height="30" as="geometry" />
        </mxCell>
        <mxCell id="msLy111ZlkWOnDK94mpJ-52" value="" style="shape=partialRectangle;overflow=hidden;connectable=0;fillColor=none;strokeColor=inherit;top=0;left=0;bottom=0;right=0;fontSize=18;" parent="msLy111ZlkWOnDK94mpJ-51" vertex="1">
          <mxGeometry width="30" height="30" as="geometry">
            <mxRectangle width="30" height="30" as="alternateBounds" />
          </mxGeometry>
        </mxCell>
        <mxCell id="msLy111ZlkWOnDK94mpJ-53" value="`updated_at` timestamp NULL DEFAULT NULL" style="shape=partialRectangle;overflow=hidden;connectable=0;fillColor=none;align=left;strokeColor=inherit;top=0;left=0;bottom=0;right=0;spacingLeft=6;fontSize=18;" parent="msLy111ZlkWOnDK94mpJ-51" vertex="1">
          <mxGeometry x="30" width="520" height="30" as="geometry">
            <mxRectangle width="520" height="30" as="alternateBounds" />
          </mxGeometry>
        </mxCell>
        <mxCell id="msLy111ZlkWOnDK94mpJ-54" value="`company_addresses`" style="shape=table;startSize=30;container=1;collapsible=1;childLayout=tableLayout;fixedRows=1;rowLines=0;fontStyle=1;align=center;resizeLast=1;fontSize=18;" parent="1" vertex="1">
          <mxGeometry x="1190" y="560" width="560" height="330" as="geometry" />
        </mxCell>
        <mxCell id="msLy111ZlkWOnDK94mpJ-55" value="" style="shape=tableRow;horizontal=0;startSize=0;swimlaneHead=0;swimlaneBody=0;fillColor=none;collapsible=0;dropTarget=0;points=[[0,0.5],[1,0.5]];portConstraint=eastwest;strokeColor=inherit;top=0;left=0;right=0;bottom=1;fontSize=18;" parent="msLy111ZlkWOnDK94mpJ-54" vertex="1">
          <mxGeometry y="30" width="560" height="30" as="geometry" />
        </mxCell>
        <mxCell id="msLy111ZlkWOnDK94mpJ-56" value="PK" style="shape=partialRectangle;overflow=hidden;connectable=0;fillColor=none;strokeColor=inherit;top=0;left=0;bottom=0;right=0;fontStyle=1;fontSize=18;" parent="msLy111ZlkWOnDK94mpJ-55" vertex="1">
          <mxGeometry width="30" height="30" as="geometry">
            <mxRectangle width="30" height="30" as="alternateBounds" />
          </mxGeometry>
        </mxCell>
        <mxCell id="msLy111ZlkWOnDK94mpJ-57" value="`id` bigint(20) unsigned NOT NULL AUTO_INCREMENT" style="shape=partialRectangle;overflow=hidden;connectable=0;fillColor=none;align=left;strokeColor=inherit;top=0;left=0;bottom=0;right=0;spacingLeft=6;fontStyle=5;fontSize=18;" parent="msLy111ZlkWOnDK94mpJ-55" vertex="1">
          <mxGeometry x="30" width="530" height="30" as="geometry">
            <mxRectangle width="530" height="30" as="alternateBounds" />
          </mxGeometry>
        </mxCell>
        <mxCell id="msLy111ZlkWOnDK94mpJ-58" value="" style="shape=tableRow;horizontal=0;startSize=0;swimlaneHead=0;swimlaneBody=0;fillColor=none;collapsible=0;dropTarget=0;points=[[0,0.5],[1,0.5]];portConstraint=eastwest;strokeColor=inherit;top=0;left=0;right=0;bottom=0;fontSize=18;" parent="msLy111ZlkWOnDK94mpJ-54" vertex="1">
          <mxGeometry y="60" width="560" height="30" as="geometry" />
        </mxCell>
        <mxCell id="msLy111ZlkWOnDK94mpJ-59" value="" style="shape=partialRectangle;overflow=hidden;connectable=0;fillColor=none;strokeColor=inherit;top=0;left=0;bottom=0;right=0;fontSize=18;" parent="msLy111ZlkWOnDK94mpJ-58" vertex="1">
          <mxGeometry width="30" height="30" as="geometry">
            <mxRectangle width="30" height="30" as="alternateBounds" />
          </mxGeometry>
        </mxCell>
        <mxCell id="msLy111ZlkWOnDK94mpJ-60" value="`company_id` bigint(20) unsigned NOT NULL" style="shape=partialRectangle;overflow=hidden;connectable=0;fillColor=none;align=left;strokeColor=inherit;top=0;left=0;bottom=0;right=0;spacingLeft=6;fontSize=18;" parent="msLy111ZlkWOnDK94mpJ-58" vertex="1">
          <mxGeometry x="30" width="530" height="30" as="geometry">
            <mxRectangle width="530" height="30" as="alternateBounds" />
          </mxGeometry>
        </mxCell>
        <mxCell id="msLy111ZlkWOnDK94mpJ-61" value="" style="shape=tableRow;horizontal=0;startSize=0;swimlaneHead=0;swimlaneBody=0;fillColor=none;collapsible=0;dropTarget=0;points=[[0,0.5],[1,0.5]];portConstraint=eastwest;strokeColor=inherit;top=0;left=0;right=0;bottom=0;fontSize=18;" parent="msLy111ZlkWOnDK94mpJ-54" vertex="1">
          <mxGeometry y="90" width="560" height="30" as="geometry" />
        </mxCell>
        <mxCell id="msLy111ZlkWOnDK94mpJ-62" value="" style="shape=partialRectangle;overflow=hidden;connectable=0;fillColor=none;strokeColor=inherit;top=0;left=0;bottom=0;right=0;fontSize=18;" parent="msLy111ZlkWOnDK94mpJ-61" vertex="1">
          <mxGeometry width="30" height="30" as="geometry">
            <mxRectangle width="30" height="30" as="alternateBounds" />
          </mxGeometry>
        </mxCell>
        <mxCell id="msLy111ZlkWOnDK94mpJ-63" value="`origin_area_id` varchar(191) NOT NULL" style="shape=partialRectangle;overflow=hidden;connectable=0;fillColor=none;align=left;strokeColor=inherit;top=0;left=0;bottom=0;right=0;spacingLeft=6;fontSize=18;" parent="msLy111ZlkWOnDK94mpJ-61" vertex="1">
          <mxGeometry x="30" width="530" height="30" as="geometry">
            <mxRectangle width="530" height="30" as="alternateBounds" />
          </mxGeometry>
        </mxCell>
        <mxCell id="msLy111ZlkWOnDK94mpJ-64" value="" style="shape=tableRow;horizontal=0;startSize=0;swimlaneHead=0;swimlaneBody=0;fillColor=none;collapsible=0;dropTarget=0;points=[[0,0.5],[1,0.5]];portConstraint=eastwest;strokeColor=inherit;top=0;left=0;right=0;bottom=0;fontSize=18;" parent="msLy111ZlkWOnDK94mpJ-54" vertex="1">
          <mxGeometry y="120" width="560" height="30" as="geometry" />
        </mxCell>
        <mxCell id="msLy111ZlkWOnDK94mpJ-65" value="" style="shape=partialRectangle;overflow=hidden;connectable=0;fillColor=none;strokeColor=inherit;top=0;left=0;bottom=0;right=0;fontSize=18;" parent="msLy111ZlkWOnDK94mpJ-64" vertex="1">
          <mxGeometry width="30" height="30" as="geometry">
            <mxRectangle width="30" height="30" as="alternateBounds" />
          </mxGeometry>
        </mxCell>
        <mxCell id="msLy111ZlkWOnDK94mpJ-66" value="`origin_area_name` varchar(191) NOT NULL" style="shape=partialRectangle;overflow=hidden;connectable=0;fillColor=none;align=left;strokeColor=inherit;top=0;left=0;bottom=0;right=0;spacingLeft=6;fontSize=18;" parent="msLy111ZlkWOnDK94mpJ-64" vertex="1">
          <mxGeometry x="30" width="530" height="30" as="geometry">
            <mxRectangle width="530" height="30" as="alternateBounds" />
          </mxGeometry>
        </mxCell>
        <mxCell id="msLy111ZlkWOnDK94mpJ-67" value="" style="shape=tableRow;horizontal=0;startSize=0;swimlaneHead=0;swimlaneBody=0;fillColor=none;collapsible=0;dropTarget=0;points=[[0,0.5],[1,0.5]];portConstraint=eastwest;strokeColor=inherit;top=0;left=0;right=0;bottom=0;fontSize=18;" parent="msLy111ZlkWOnDK94mpJ-54" vertex="1">
          <mxGeometry y="150" width="560" height="30" as="geometry" />
        </mxCell>
        <mxCell id="msLy111ZlkWOnDK94mpJ-68" value="" style="shape=partialRectangle;overflow=hidden;connectable=0;fillColor=none;strokeColor=inherit;top=0;left=0;bottom=0;right=0;fontSize=18;" parent="msLy111ZlkWOnDK94mpJ-67" vertex="1">
          <mxGeometry width="30" height="30" as="geometry">
            <mxRectangle width="30" height="30" as="alternateBounds" />
          </mxGeometry>
        </mxCell>
        <mxCell id="msLy111ZlkWOnDK94mpJ-69" value="`address` varchar(191) NOT NULL" style="shape=partialRectangle;overflow=hidden;connectable=0;fillColor=none;align=left;strokeColor=inherit;top=0;left=0;bottom=0;right=0;spacingLeft=6;fontSize=18;" parent="msLy111ZlkWOnDK94mpJ-67" vertex="1">
          <mxGeometry x="30" width="530" height="30" as="geometry">
            <mxRectangle width="530" height="30" as="alternateBounds" />
          </mxGeometry>
        </mxCell>
        <mxCell id="msLy111ZlkWOnDK94mpJ-70" value="" style="shape=tableRow;horizontal=0;startSize=0;swimlaneHead=0;swimlaneBody=0;fillColor=none;collapsible=0;dropTarget=0;points=[[0,0.5],[1,0.5]];portConstraint=eastwest;strokeColor=inherit;top=0;left=0;right=0;bottom=0;fontSize=18;" parent="msLy111ZlkWOnDK94mpJ-54" vertex="1">
          <mxGeometry y="180" width="560" height="30" as="geometry" />
        </mxCell>
        <mxCell id="msLy111ZlkWOnDK94mpJ-71" value="" style="shape=partialRectangle;overflow=hidden;connectable=0;fillColor=none;strokeColor=inherit;top=0;left=0;bottom=0;right=0;fontSize=18;" parent="msLy111ZlkWOnDK94mpJ-70" vertex="1">
          <mxGeometry width="30" height="30" as="geometry">
            <mxRectangle width="30" height="30" as="alternateBounds" />
          </mxGeometry>
        </mxCell>
        <mxCell id="msLy111ZlkWOnDK94mpJ-72" value="`description` longtext NOT NULL" style="shape=partialRectangle;overflow=hidden;connectable=0;fillColor=none;align=left;strokeColor=inherit;top=0;left=0;bottom=0;right=0;spacingLeft=6;fontSize=18;" parent="msLy111ZlkWOnDK94mpJ-70" vertex="1">
          <mxGeometry x="30" width="530" height="30" as="geometry">
            <mxRectangle width="530" height="30" as="alternateBounds" />
          </mxGeometry>
        </mxCell>
        <mxCell id="msLy111ZlkWOnDK94mpJ-73" value="" style="shape=tableRow;horizontal=0;startSize=0;swimlaneHead=0;swimlaneBody=0;fillColor=none;collapsible=0;dropTarget=0;points=[[0,0.5],[1,0.5]];portConstraint=eastwest;strokeColor=inherit;top=0;left=0;right=0;bottom=0;fontSize=18;" parent="msLy111ZlkWOnDK94mpJ-54" vertex="1">
          <mxGeometry y="210" width="560" height="30" as="geometry" />
        </mxCell>
        <mxCell id="msLy111ZlkWOnDK94mpJ-74" value="" style="shape=partialRectangle;overflow=hidden;connectable=0;fillColor=none;strokeColor=inherit;top=0;left=0;bottom=0;right=0;fontSize=18;" parent="msLy111ZlkWOnDK94mpJ-73" vertex="1">
          <mxGeometry width="30" height="30" as="geometry">
            <mxRectangle width="30" height="30" as="alternateBounds" />
          </mxGeometry>
        </mxCell>
        <mxCell id="msLy111ZlkWOnDK94mpJ-75" value="`status` tinyint(1) NOT NULL" style="shape=partialRectangle;overflow=hidden;connectable=0;fillColor=none;align=left;strokeColor=inherit;top=0;left=0;bottom=0;right=0;spacingLeft=6;fontSize=18;" parent="msLy111ZlkWOnDK94mpJ-73" vertex="1">
          <mxGeometry x="30" width="530" height="30" as="geometry">
            <mxRectangle width="530" height="30" as="alternateBounds" />
          </mxGeometry>
        </mxCell>
        <mxCell id="msLy111ZlkWOnDK94mpJ-76" value="" style="shape=tableRow;horizontal=0;startSize=0;swimlaneHead=0;swimlaneBody=0;fillColor=none;collapsible=0;dropTarget=0;points=[[0,0.5],[1,0.5]];portConstraint=eastwest;strokeColor=inherit;top=0;left=0;right=0;bottom=0;fontSize=18;" parent="msLy111ZlkWOnDK94mpJ-54" vertex="1">
          <mxGeometry y="240" width="560" height="30" as="geometry" />
        </mxCell>
        <mxCell id="msLy111ZlkWOnDK94mpJ-77" value="" style="shape=partialRectangle;overflow=hidden;connectable=0;fillColor=none;strokeColor=inherit;top=0;left=0;bottom=0;right=0;fontSize=18;" parent="msLy111ZlkWOnDK94mpJ-76" vertex="1">
          <mxGeometry width="30" height="30" as="geometry">
            <mxRectangle width="30" height="30" as="alternateBounds" />
          </mxGeometry>
        </mxCell>
        <mxCell id="msLy111ZlkWOnDK94mpJ-78" value="`deleted_at` timestamp NULL DEFAULT NULL" style="shape=partialRectangle;overflow=hidden;connectable=0;fillColor=none;align=left;strokeColor=inherit;top=0;left=0;bottom=0;right=0;spacingLeft=6;fontSize=18;" parent="msLy111ZlkWOnDK94mpJ-76" vertex="1">
          <mxGeometry x="30" width="530" height="30" as="geometry">
            <mxRectangle width="530" height="30" as="alternateBounds" />
          </mxGeometry>
        </mxCell>
        <mxCell id="msLy111ZlkWOnDK94mpJ-79" value="" style="shape=tableRow;horizontal=0;startSize=0;swimlaneHead=0;swimlaneBody=0;fillColor=none;collapsible=0;dropTarget=0;points=[[0,0.5],[1,0.5]];portConstraint=eastwest;strokeColor=inherit;top=0;left=0;right=0;bottom=0;fontSize=18;" parent="msLy111ZlkWOnDK94mpJ-54" vertex="1">
          <mxGeometry y="270" width="560" height="30" as="geometry" />
        </mxCell>
        <mxCell id="msLy111ZlkWOnDK94mpJ-80" value="" style="shape=partialRectangle;overflow=hidden;connectable=0;fillColor=none;strokeColor=inherit;top=0;left=0;bottom=0;right=0;fontSize=18;" parent="msLy111ZlkWOnDK94mpJ-79" vertex="1">
          <mxGeometry width="30" height="30" as="geometry">
            <mxRectangle width="30" height="30" as="alternateBounds" />
          </mxGeometry>
        </mxCell>
        <mxCell id="msLy111ZlkWOnDK94mpJ-81" value="`created_at` timestamp NULL DEFAULT NULL" style="shape=partialRectangle;overflow=hidden;connectable=0;fillColor=none;align=left;strokeColor=inherit;top=0;left=0;bottom=0;right=0;spacingLeft=6;fontSize=18;" parent="msLy111ZlkWOnDK94mpJ-79" vertex="1">
          <mxGeometry x="30" width="530" height="30" as="geometry">
            <mxRectangle width="530" height="30" as="alternateBounds" />
          </mxGeometry>
        </mxCell>
        <mxCell id="msLy111ZlkWOnDK94mpJ-82" value="" style="shape=tableRow;horizontal=0;startSize=0;swimlaneHead=0;swimlaneBody=0;fillColor=none;collapsible=0;dropTarget=0;points=[[0,0.5],[1,0.5]];portConstraint=eastwest;strokeColor=inherit;top=0;left=0;right=0;bottom=0;fontSize=18;" parent="msLy111ZlkWOnDK94mpJ-54" vertex="1">
          <mxGeometry y="300" width="560" height="30" as="geometry" />
        </mxCell>
        <mxCell id="msLy111ZlkWOnDK94mpJ-83" value="" style="shape=partialRectangle;overflow=hidden;connectable=0;fillColor=none;strokeColor=inherit;top=0;left=0;bottom=0;right=0;fontSize=18;" parent="msLy111ZlkWOnDK94mpJ-82" vertex="1">
          <mxGeometry width="30" height="30" as="geometry">
            <mxRectangle width="30" height="30" as="alternateBounds" />
          </mxGeometry>
        </mxCell>
        <mxCell id="msLy111ZlkWOnDK94mpJ-84" value="`updated_at` timestamp NULL DEFAULT NULL" style="shape=partialRectangle;overflow=hidden;connectable=0;fillColor=none;align=left;strokeColor=inherit;top=0;left=0;bottom=0;right=0;spacingLeft=6;fontSize=18;" parent="msLy111ZlkWOnDK94mpJ-82" vertex="1">
          <mxGeometry x="30" width="530" height="30" as="geometry">
            <mxRectangle width="530" height="30" as="alternateBounds" />
          </mxGeometry>
        </mxCell>
        <mxCell id="msLy111ZlkWOnDK94mpJ-85" value="`driver_notes`" style="shape=table;startSize=30;container=1;collapsible=1;childLayout=tableLayout;fixedRows=1;rowLines=0;fontStyle=1;align=center;resizeLast=1;fontSize=18;" parent="1" vertex="1">
          <mxGeometry x="280" y="280" width="570" height="180" as="geometry" />
        </mxCell>
        <mxCell id="msLy111ZlkWOnDK94mpJ-86" value="" style="shape=tableRow;horizontal=0;startSize=0;swimlaneHead=0;swimlaneBody=0;fillColor=none;collapsible=0;dropTarget=0;points=[[0,0.5],[1,0.5]];portConstraint=eastwest;strokeColor=inherit;top=0;left=0;right=0;bottom=1;fontSize=18;" parent="msLy111ZlkWOnDK94mpJ-85" vertex="1">
          <mxGeometry y="30" width="570" height="30" as="geometry" />
        </mxCell>
        <mxCell id="msLy111ZlkWOnDK94mpJ-87" value="PK" style="shape=partialRectangle;overflow=hidden;connectable=0;fillColor=none;strokeColor=inherit;top=0;left=0;bottom=0;right=0;fontStyle=1;fontSize=18;" parent="msLy111ZlkWOnDK94mpJ-86" vertex="1">
          <mxGeometry width="30" height="30" as="geometry">
            <mxRectangle width="30" height="30" as="alternateBounds" />
          </mxGeometry>
        </mxCell>
        <mxCell id="msLy111ZlkWOnDK94mpJ-88" value="`id` bigint(20) unsigned NOT NULL AUTO_INCREMENT" style="shape=partialRectangle;overflow=hidden;connectable=0;fillColor=none;align=left;strokeColor=inherit;top=0;left=0;bottom=0;right=0;spacingLeft=6;fontStyle=5;fontSize=18;" parent="msLy111ZlkWOnDK94mpJ-86" vertex="1">
          <mxGeometry x="30" width="540" height="30" as="geometry">
            <mxRectangle width="540" height="30" as="alternateBounds" />
          </mxGeometry>
        </mxCell>
        <mxCell id="msLy111ZlkWOnDK94mpJ-89" value="" style="shape=tableRow;horizontal=0;startSize=0;swimlaneHead=0;swimlaneBody=0;fillColor=none;collapsible=0;dropTarget=0;points=[[0,0.5],[1,0.5]];portConstraint=eastwest;strokeColor=inherit;top=0;left=0;right=0;bottom=0;fontSize=18;" parent="msLy111ZlkWOnDK94mpJ-85" vertex="1">
          <mxGeometry y="60" width="570" height="30" as="geometry" />
        </mxCell>
        <mxCell id="msLy111ZlkWOnDK94mpJ-90" value="" style="shape=partialRectangle;overflow=hidden;connectable=0;fillColor=none;strokeColor=inherit;top=0;left=0;bottom=0;right=0;fontSize=18;" parent="msLy111ZlkWOnDK94mpJ-89" vertex="1">
          <mxGeometry width="30" height="30" as="geometry">
            <mxRectangle width="30" height="30" as="alternateBounds" />
          </mxGeometry>
        </mxCell>
        <mxCell id="msLy111ZlkWOnDK94mpJ-91" value="`supplier_shipment_id` char(36) NOT NULL" style="shape=partialRectangle;overflow=hidden;connectable=0;fillColor=none;align=left;strokeColor=inherit;top=0;left=0;bottom=0;right=0;spacingLeft=6;fontSize=18;" parent="msLy111ZlkWOnDK94mpJ-89" vertex="1">
          <mxGeometry x="30" width="540" height="30" as="geometry">
            <mxRectangle width="540" height="30" as="alternateBounds" />
          </mxGeometry>
        </mxCell>
        <mxCell id="msLy111ZlkWOnDK94mpJ-92" value="" style="shape=tableRow;horizontal=0;startSize=0;swimlaneHead=0;swimlaneBody=0;fillColor=none;collapsible=0;dropTarget=0;points=[[0,0.5],[1,0.5]];portConstraint=eastwest;strokeColor=inherit;top=0;left=0;right=0;bottom=0;fontSize=18;" parent="msLy111ZlkWOnDK94mpJ-85" vertex="1">
          <mxGeometry y="90" width="570" height="30" as="geometry" />
        </mxCell>
        <mxCell id="msLy111ZlkWOnDK94mpJ-93" value="" style="shape=partialRectangle;overflow=hidden;connectable=0;fillColor=none;strokeColor=inherit;top=0;left=0;bottom=0;right=0;fontSize=18;" parent="msLy111ZlkWOnDK94mpJ-92" vertex="1">
          <mxGeometry width="30" height="30" as="geometry">
            <mxRectangle width="30" height="30" as="alternateBounds" />
          </mxGeometry>
        </mxCell>
        <mxCell id="msLy111ZlkWOnDK94mpJ-94" value="`note` text NOT NULL" style="shape=partialRectangle;overflow=hidden;connectable=0;fillColor=none;align=left;strokeColor=inherit;top=0;left=0;bottom=0;right=0;spacingLeft=6;fontSize=18;" parent="msLy111ZlkWOnDK94mpJ-92" vertex="1">
          <mxGeometry x="30" width="540" height="30" as="geometry">
            <mxRectangle width="540" height="30" as="alternateBounds" />
          </mxGeometry>
        </mxCell>
        <mxCell id="msLy111ZlkWOnDK94mpJ-95" value="" style="shape=tableRow;horizontal=0;startSize=0;swimlaneHead=0;swimlaneBody=0;fillColor=none;collapsible=0;dropTarget=0;points=[[0,0.5],[1,0.5]];portConstraint=eastwest;strokeColor=inherit;top=0;left=0;right=0;bottom=0;fontSize=18;" parent="msLy111ZlkWOnDK94mpJ-85" vertex="1">
          <mxGeometry y="120" width="570" height="30" as="geometry" />
        </mxCell>
        <mxCell id="msLy111ZlkWOnDK94mpJ-96" value="" style="shape=partialRectangle;overflow=hidden;connectable=0;fillColor=none;strokeColor=inherit;top=0;left=0;bottom=0;right=0;fontSize=18;" parent="msLy111ZlkWOnDK94mpJ-95" vertex="1">
          <mxGeometry width="30" height="30" as="geometry">
            <mxRectangle width="30" height="30" as="alternateBounds" />
          </mxGeometry>
        </mxCell>
        <mxCell id="msLy111ZlkWOnDK94mpJ-97" value="`created_at` timestamp NULL DEFAULT NULL" style="shape=partialRectangle;overflow=hidden;connectable=0;fillColor=none;align=left;strokeColor=inherit;top=0;left=0;bottom=0;right=0;spacingLeft=6;fontSize=18;" parent="msLy111ZlkWOnDK94mpJ-95" vertex="1">
          <mxGeometry x="30" width="540" height="30" as="geometry">
            <mxRectangle width="540" height="30" as="alternateBounds" />
          </mxGeometry>
        </mxCell>
        <mxCell id="msLy111ZlkWOnDK94mpJ-98" value="" style="shape=tableRow;horizontal=0;startSize=0;swimlaneHead=0;swimlaneBody=0;fillColor=none;collapsible=0;dropTarget=0;points=[[0,0.5],[1,0.5]];portConstraint=eastwest;strokeColor=inherit;top=0;left=0;right=0;bottom=0;fontSize=18;" parent="msLy111ZlkWOnDK94mpJ-85" vertex="1">
          <mxGeometry y="150" width="570" height="30" as="geometry" />
        </mxCell>
        <mxCell id="msLy111ZlkWOnDK94mpJ-99" value="" style="shape=partialRectangle;overflow=hidden;connectable=0;fillColor=none;strokeColor=inherit;top=0;left=0;bottom=0;right=0;fontSize=18;" parent="msLy111ZlkWOnDK94mpJ-98" vertex="1">
          <mxGeometry width="30" height="30" as="geometry">
            <mxRectangle width="30" height="30" as="alternateBounds" />
          </mxGeometry>
        </mxCell>
        <mxCell id="msLy111ZlkWOnDK94mpJ-100" value="`updated_at` timestamp NULL DEFAULT NULL" style="shape=partialRectangle;overflow=hidden;connectable=0;fillColor=none;align=left;strokeColor=inherit;top=0;left=0;bottom=0;right=0;spacingLeft=6;fontSize=18;" parent="msLy111ZlkWOnDK94mpJ-98" vertex="1">
          <mxGeometry x="30" width="540" height="30" as="geometry">
            <mxRectangle width="540" height="30" as="alternateBounds" />
          </mxGeometry>
        </mxCell>
        <mxCell id="msLy111ZlkWOnDK94mpJ-101" value="`stock_ins`" style="shape=table;startSize=30;container=1;collapsible=1;childLayout=tableLayout;fixedRows=1;rowLines=0;fontStyle=1;align=center;resizeLast=1;fontSize=18;" parent="1" vertex="1">
          <mxGeometry x="260" y="1050" width="580" height="300" as="geometry" />
        </mxCell>
        <mxCell id="msLy111ZlkWOnDK94mpJ-102" value="" style="shape=tableRow;horizontal=0;startSize=0;swimlaneHead=0;swimlaneBody=0;fillColor=none;collapsible=0;dropTarget=0;points=[[0,0.5],[1,0.5]];portConstraint=eastwest;strokeColor=inherit;top=0;left=0;right=0;bottom=1;fontSize=18;" parent="msLy111ZlkWOnDK94mpJ-101" vertex="1">
          <mxGeometry y="30" width="580" height="30" as="geometry" />
        </mxCell>
        <mxCell id="msLy111ZlkWOnDK94mpJ-103" value="PK" style="shape=partialRectangle;overflow=hidden;connectable=0;fillColor=none;strokeColor=inherit;top=0;left=0;bottom=0;right=0;fontStyle=1;fontSize=18;" parent="msLy111ZlkWOnDK94mpJ-102" vertex="1">
          <mxGeometry width="30" height="30" as="geometry">
            <mxRectangle width="30" height="30" as="alternateBounds" />
          </mxGeometry>
        </mxCell>
        <mxCell id="msLy111ZlkWOnDK94mpJ-104" value="`id` bigint(20) unsigned NOT NULL AUTO_INCREMENT" style="shape=partialRectangle;overflow=hidden;connectable=0;fillColor=none;align=left;strokeColor=inherit;top=0;left=0;bottom=0;right=0;spacingLeft=6;fontStyle=5;fontSize=18;" parent="msLy111ZlkWOnDK94mpJ-102" vertex="1">
          <mxGeometry x="30" width="550" height="30" as="geometry">
            <mxRectangle width="550" height="30" as="alternateBounds" />
          </mxGeometry>
        </mxCell>
        <mxCell id="msLy111ZlkWOnDK94mpJ-105" value="" style="shape=tableRow;horizontal=0;startSize=0;swimlaneHead=0;swimlaneBody=0;fillColor=none;collapsible=0;dropTarget=0;points=[[0,0.5],[1,0.5]];portConstraint=eastwest;strokeColor=inherit;top=0;left=0;right=0;bottom=0;fontSize=18;" parent="msLy111ZlkWOnDK94mpJ-101" vertex="1">
          <mxGeometry y="60" width="580" height="30" as="geometry" />
        </mxCell>
        <mxCell id="msLy111ZlkWOnDK94mpJ-106" value="" style="shape=partialRectangle;overflow=hidden;connectable=0;fillColor=none;strokeColor=inherit;top=0;left=0;bottom=0;right=0;fontSize=18;" parent="msLy111ZlkWOnDK94mpJ-105" vertex="1">
          <mxGeometry width="30" height="30" as="geometry">
            <mxRectangle width="30" height="30" as="alternateBounds" />
          </mxGeometry>
        </mxCell>
        <mxCell id="msLy111ZlkWOnDK94mpJ-107" value="`product_id` bigint(20) unsigned NOT NULL" style="shape=partialRectangle;overflow=hidden;connectable=0;fillColor=none;align=left;strokeColor=inherit;top=0;left=0;bottom=0;right=0;spacingLeft=6;fontSize=18;" parent="msLy111ZlkWOnDK94mpJ-105" vertex="1">
          <mxGeometry x="30" width="550" height="30" as="geometry">
            <mxRectangle width="550" height="30" as="alternateBounds" />
          </mxGeometry>
        </mxCell>
        <mxCell id="msLy111ZlkWOnDK94mpJ-108" value="" style="shape=tableRow;horizontal=0;startSize=0;swimlaneHead=0;swimlaneBody=0;fillColor=none;collapsible=0;dropTarget=0;points=[[0,0.5],[1,0.5]];portConstraint=eastwest;strokeColor=inherit;top=0;left=0;right=0;bottom=0;fontSize=18;" parent="msLy111ZlkWOnDK94mpJ-101" vertex="1">
          <mxGeometry y="90" width="580" height="30" as="geometry" />
        </mxCell>
        <mxCell id="msLy111ZlkWOnDK94mpJ-109" value="" style="shape=partialRectangle;overflow=hidden;connectable=0;fillColor=none;strokeColor=inherit;top=0;left=0;bottom=0;right=0;fontSize=18;" parent="msLy111ZlkWOnDK94mpJ-108" vertex="1">
          <mxGeometry width="30" height="30" as="geometry">
            <mxRectangle width="30" height="30" as="alternateBounds" />
          </mxGeometry>
        </mxCell>
        <mxCell id="msLy111ZlkWOnDK94mpJ-110" value="`supplier_company_id` bigint(20) unsigned DEFAULT NULL" style="shape=partialRectangle;overflow=hidden;connectable=0;fillColor=none;align=left;strokeColor=inherit;top=0;left=0;bottom=0;right=0;spacingLeft=6;fontSize=18;" parent="msLy111ZlkWOnDK94mpJ-108" vertex="1">
          <mxGeometry x="30" width="550" height="30" as="geometry">
            <mxRectangle width="550" height="30" as="alternateBounds" />
          </mxGeometry>
        </mxCell>
        <mxCell id="msLy111ZlkWOnDK94mpJ-111" value="" style="shape=tableRow;horizontal=0;startSize=0;swimlaneHead=0;swimlaneBody=0;fillColor=none;collapsible=0;dropTarget=0;points=[[0,0.5],[1,0.5]];portConstraint=eastwest;strokeColor=inherit;top=0;left=0;right=0;bottom=0;fontSize=18;" parent="msLy111ZlkWOnDK94mpJ-101" vertex="1">
          <mxGeometry y="120" width="580" height="30" as="geometry" />
        </mxCell>
        <mxCell id="msLy111ZlkWOnDK94mpJ-112" value="" style="shape=partialRectangle;overflow=hidden;connectable=0;fillColor=none;strokeColor=inherit;top=0;left=0;bottom=0;right=0;fontSize=18;" parent="msLy111ZlkWOnDK94mpJ-111" vertex="1">
          <mxGeometry width="30" height="30" as="geometry">
            <mxRectangle width="30" height="30" as="alternateBounds" />
          </mxGeometry>
        </mxCell>
        <mxCell id="msLy111ZlkWOnDK94mpJ-113" value="`supplier_shipment_id` char(36) DEFAULT NULL" style="shape=partialRectangle;overflow=hidden;connectable=0;fillColor=none;align=left;strokeColor=inherit;top=0;left=0;bottom=0;right=0;spacingLeft=6;fontSize=18;" parent="msLy111ZlkWOnDK94mpJ-111" vertex="1">
          <mxGeometry x="30" width="550" height="30" as="geometry">
            <mxRectangle width="550" height="30" as="alternateBounds" />
          </mxGeometry>
        </mxCell>
        <mxCell id="msLy111ZlkWOnDK94mpJ-114" value="" style="shape=tableRow;horizontal=0;startSize=0;swimlaneHead=0;swimlaneBody=0;fillColor=none;collapsible=0;dropTarget=0;points=[[0,0.5],[1,0.5]];portConstraint=eastwest;strokeColor=inherit;top=0;left=0;right=0;bottom=0;fontSize=18;" parent="msLy111ZlkWOnDK94mpJ-101" vertex="1">
          <mxGeometry y="150" width="580" height="30" as="geometry" />
        </mxCell>
        <mxCell id="msLy111ZlkWOnDK94mpJ-115" value="" style="shape=partialRectangle;overflow=hidden;connectable=0;fillColor=none;strokeColor=inherit;top=0;left=0;bottom=0;right=0;fontSize=18;" parent="msLy111ZlkWOnDK94mpJ-114" vertex="1">
          <mxGeometry width="30" height="30" as="geometry">
            <mxRectangle width="30" height="30" as="alternateBounds" />
          </mxGeometry>
        </mxCell>
        <mxCell id="msLy111ZlkWOnDK94mpJ-116" value="`date` timestamp NULL DEFAULT NULL" style="shape=partialRectangle;overflow=hidden;connectable=0;fillColor=none;align=left;strokeColor=inherit;top=0;left=0;bottom=0;right=0;spacingLeft=6;fontSize=18;" parent="msLy111ZlkWOnDK94mpJ-114" vertex="1">
          <mxGeometry x="30" width="550" height="30" as="geometry">
            <mxRectangle width="550" height="30" as="alternateBounds" />
          </mxGeometry>
        </mxCell>
        <mxCell id="msLy111ZlkWOnDK94mpJ-117" value="" style="shape=tableRow;horizontal=0;startSize=0;swimlaneHead=0;swimlaneBody=0;fillColor=none;collapsible=0;dropTarget=0;points=[[0,0.5],[1,0.5]];portConstraint=eastwest;strokeColor=inherit;top=0;left=0;right=0;bottom=0;fontSize=18;" parent="msLy111ZlkWOnDK94mpJ-101" vertex="1">
          <mxGeometry y="180" width="580" height="30" as="geometry" />
        </mxCell>
        <mxCell id="msLy111ZlkWOnDK94mpJ-118" value="" style="shape=partialRectangle;overflow=hidden;connectable=0;fillColor=none;strokeColor=inherit;top=0;left=0;bottom=0;right=0;fontSize=18;" parent="msLy111ZlkWOnDK94mpJ-117" vertex="1">
          <mxGeometry width="30" height="30" as="geometry">
            <mxRectangle width="30" height="30" as="alternateBounds" />
          </mxGeometry>
        </mxCell>
        <mxCell id="msLy111ZlkWOnDK94mpJ-119" value="`description` text DEFAULT NULL" style="shape=partialRectangle;overflow=hidden;connectable=0;fillColor=none;align=left;strokeColor=inherit;top=0;left=0;bottom=0;right=0;spacingLeft=6;fontSize=18;" parent="msLy111ZlkWOnDK94mpJ-117" vertex="1">
          <mxGeometry x="30" width="550" height="30" as="geometry">
            <mxRectangle width="550" height="30" as="alternateBounds" />
          </mxGeometry>
        </mxCell>
        <mxCell id="msLy111ZlkWOnDK94mpJ-120" value="" style="shape=tableRow;horizontal=0;startSize=0;swimlaneHead=0;swimlaneBody=0;fillColor=none;collapsible=0;dropTarget=0;points=[[0,0.5],[1,0.5]];portConstraint=eastwest;strokeColor=inherit;top=0;left=0;right=0;bottom=0;fontSize=18;" parent="msLy111ZlkWOnDK94mpJ-101" vertex="1">
          <mxGeometry y="210" width="580" height="30" as="geometry" />
        </mxCell>
        <mxCell id="msLy111ZlkWOnDK94mpJ-121" value="" style="shape=partialRectangle;overflow=hidden;connectable=0;fillColor=none;strokeColor=inherit;top=0;left=0;bottom=0;right=0;fontSize=18;" parent="msLy111ZlkWOnDK94mpJ-120" vertex="1">
          <mxGeometry width="30" height="30" as="geometry">
            <mxRectangle width="30" height="30" as="alternateBounds" />
          </mxGeometry>
        </mxCell>
        <mxCell id="msLy111ZlkWOnDK94mpJ-122" value="`quantity` int(11) NOT NULL" style="shape=partialRectangle;overflow=hidden;connectable=0;fillColor=none;align=left;strokeColor=inherit;top=0;left=0;bottom=0;right=0;spacingLeft=6;fontSize=18;" parent="msLy111ZlkWOnDK94mpJ-120" vertex="1">
          <mxGeometry x="30" width="550" height="30" as="geometry">
            <mxRectangle width="550" height="30" as="alternateBounds" />
          </mxGeometry>
        </mxCell>
        <mxCell id="msLy111ZlkWOnDK94mpJ-123" value="" style="shape=tableRow;horizontal=0;startSize=0;swimlaneHead=0;swimlaneBody=0;fillColor=none;collapsible=0;dropTarget=0;points=[[0,0.5],[1,0.5]];portConstraint=eastwest;strokeColor=inherit;top=0;left=0;right=0;bottom=0;fontSize=18;" parent="msLy111ZlkWOnDK94mpJ-101" vertex="1">
          <mxGeometry y="240" width="580" height="30" as="geometry" />
        </mxCell>
        <mxCell id="msLy111ZlkWOnDK94mpJ-124" value="" style="shape=partialRectangle;overflow=hidden;connectable=0;fillColor=none;strokeColor=inherit;top=0;left=0;bottom=0;right=0;fontSize=18;" parent="msLy111ZlkWOnDK94mpJ-123" vertex="1">
          <mxGeometry width="30" height="30" as="geometry">
            <mxRectangle width="30" height="30" as="alternateBounds" />
          </mxGeometry>
        </mxCell>
        <mxCell id="msLy111ZlkWOnDK94mpJ-125" value="`created_at` timestamp NULL DEFAULT NULL" style="shape=partialRectangle;overflow=hidden;connectable=0;fillColor=none;align=left;strokeColor=inherit;top=0;left=0;bottom=0;right=0;spacingLeft=6;fontSize=18;" parent="msLy111ZlkWOnDK94mpJ-123" vertex="1">
          <mxGeometry x="30" width="550" height="30" as="geometry">
            <mxRectangle width="550" height="30" as="alternateBounds" />
          </mxGeometry>
        </mxCell>
        <mxCell id="msLy111ZlkWOnDK94mpJ-126" value="" style="shape=tableRow;horizontal=0;startSize=0;swimlaneHead=0;swimlaneBody=0;fillColor=none;collapsible=0;dropTarget=0;points=[[0,0.5],[1,0.5]];portConstraint=eastwest;strokeColor=inherit;top=0;left=0;right=0;bottom=0;fontSize=18;" parent="msLy111ZlkWOnDK94mpJ-101" vertex="1">
          <mxGeometry y="270" width="580" height="30" as="geometry" />
        </mxCell>
        <mxCell id="msLy111ZlkWOnDK94mpJ-127" value="" style="shape=partialRectangle;overflow=hidden;connectable=0;fillColor=none;strokeColor=inherit;top=0;left=0;bottom=0;right=0;fontSize=18;" parent="msLy111ZlkWOnDK94mpJ-126" vertex="1">
          <mxGeometry width="30" height="30" as="geometry">
            <mxRectangle width="30" height="30" as="alternateBounds" />
          </mxGeometry>
        </mxCell>
        <mxCell id="msLy111ZlkWOnDK94mpJ-128" value="`updated_at` timestamp NULL DEFAULT NULL" style="shape=partialRectangle;overflow=hidden;connectable=0;fillColor=none;align=left;strokeColor=inherit;top=0;left=0;bottom=0;right=0;spacingLeft=6;fontSize=18;" parent="msLy111ZlkWOnDK94mpJ-126" vertex="1">
          <mxGeometry x="30" width="550" height="30" as="geometry">
            <mxRectangle width="550" height="30" as="alternateBounds" />
          </mxGeometry>
        </mxCell>
        <mxCell id="msLy111ZlkWOnDK94mpJ-129" value="" style="fontSize=12;html=1;endArrow=ERmany;rounded=0;endFill=0;startArrow=ERone;startFill=0;" parent="1" edge="1">
          <mxGeometry width="100" height="100" relative="1" as="geometry">
            <mxPoint x="543" y="870" as="sourcePoint" />
            <mxPoint x="543" y="1050" as="targetPoint" />
          </mxGeometry>
        </mxCell>
        <mxCell id="msLy111ZlkWOnDK94mpJ-131" value="" style="fontSize=12;html=1;endArrow=ERone;rounded=0;exitX=1.004;exitY=1.15;exitDx=0;exitDy=0;exitPerimeter=0;entryX=0;entryY=0.5;entryDx=0;entryDy=0;endFill=0;startArrow=ERone;startFill=0;" parent="1" source="msLy111ZlkWOnDK94mpJ-8" target="msLy111ZlkWOnDK94mpJ-67" edge="1">
          <mxGeometry width="100" height="100" relative="1" as="geometry">
            <mxPoint x="553" y="885" as="sourcePoint" />
            <mxPoint x="553" y="1060" as="targetPoint" />
          </mxGeometry>
        </mxCell>
        <mxCell id="msLy111ZlkWOnDK94mpJ-134" value="" style="fontSize=12;html=1;endArrow=ERmany;rounded=0;exitX=0.477;exitY=-0.003;exitDx=0;exitDy=0;exitPerimeter=0;entryX=0.473;entryY=0.984;entryDx=0;entryDy=0;entryPerimeter=0;endFill=0;startArrow=ERone;startFill=0;" parent="1" source="msLy111ZlkWOnDK94mpJ-1" target="msLy111ZlkWOnDK94mpJ-98" edge="1">
          <mxGeometry width="100" height="100" relative="1" as="geometry">
            <mxPoint x="553" y="885" as="sourcePoint" />
            <mxPoint x="553" y="1060" as="targetPoint" />
          </mxGeometry>
        </mxCell>
        <mxCell id="msLy111ZlkWOnDK94mpJ-136" value="" style="fontSize=12;html=1;endArrow=ERone;rounded=0;entryX=0.003;entryY=1.003;entryDx=0;entryDy=0;endFill=0;startArrow=ERone;startFill=0;entryPerimeter=0;" parent="1" target="msLy111ZlkWOnDK94mpJ-8" edge="1">
          <mxGeometry width="100" height="100" relative="1" as="geometry">
            <mxPoint x="-41" y="720" as="sourcePoint" />
            <mxPoint x="1200" y="735" as="targetPoint" />
          </mxGeometry>
        </mxCell>
      </root>
    </mxGraphModel>
  </diagram>
</mxfile>
